# xmcd CD database file
#
# Track frame offsets:
#	150
#	16133
#	31092
#	47642
#	96007
#
# Disc length: 1430 seconds
#
# Revision: 0
# Processed by: cddbd v1.5.2PL0 Copyright (c) Steve Scherf et al.
# Submitted via: CDex 1.83
#
DISCID=2c059405
DTITLE=divers - Stardust memories cd jazzmagazine
DYEAR=2018
DGENRE=Jazz
TTITLE0=Irving Mills and his Hotsy-Totsy Gang - Star Dust
TTITLE1=Fats Waller - 	
TTITLE2=Lester Young - 	
TTITLE3=John Coltrane - 	
TTITLE4=Hoagy Carmichael - Stard Dust
EXTD=YEAR: 2018
EXTT0=
EXTT1=
EXTT2=
EXTT3=
EXTT4=
PLAYORDER=
